<?xml version="1.0" encoding="UTF-8"?> <!-- Generator: Adobe Illustrator 25.2.1, SVG Export Plug-In . SVG Version: 6.00 Build 0) --> <svg xmlns="http://www.w3.org/2000/svg" xmlns:xlink="http://www.w3.org/1999/xlink" version="1.1" x="0px" y="0px" viewBox="0 0 48 46" style="enable-background:new 0 0 48 46;" xml:space="preserve"> <style type="text/css"> .st0{display:none;} .st1{display:inline;fill:#BD041B;} .st2{display:inline;fill:#F0F6F7;} .st3{display:inline;fill:#06013D;} .st4{fill:#00865A;} .st5{fill:#AF041B;} .st6{fill:#D8001E;} </style> <g id="Background" class="st0"> <rect x="-220.2" y="2973.9" class="st1" width="488.5" height="488.5"></rect> <rect x="-4692.2" y="2973.9" class="st1" width="1032.3" height="488.5"></rect> <rect x="-8648.5" y="2920.4" class="st1" width="545.1" height="600.6"></rect> <rect x="-10790" y="2920.4" class="st1" width="628.1" height="595.4"></rect> <rect x="-220.2" y="1773.9" class="st2" width="488.5" height="488.5"></rect> <rect x="-4692.2" y="1773.9" class="st2" width="1032.3" height="488.5"></rect> <rect x="-8648.5" y="1715.2" class="st2" width="545.1" height="600.6"></rect> <rect x="-10790" y="1720.4" class="st2" width="628.1" height="595.4"></rect> <rect x="-220.2" y="573.9" class="st3" width="488.5" height="488.5"></rect> <rect x="-2591.8" y="2973.9" class="st1" width="1031.5" height="488.5"></rect> <rect x="-2591.8" y="1773.9" class="st2" width="1031.5" height="488.5"></rect> <rect x="-2591.8" y="573.9" class="st3" width="1031.5" height="488.5"></rect> <rect x="-4688.9" y="573.9" class="st3" width="1032.3" height="488.5"></rect> <rect x="-6590" y="2876.8" class="st1" width="628.1" height="682.7"></rect> <rect x="-6590" y="1676.8" class="st2" width="628.1" height="682.7"></rect> <rect x="-6590" y="476.8" class="st3" width="628.1" height="682.7"></rect> <rect x="-8648.5" y="515.2" class="st3" width="545.1" height="605.8"></rect> <rect x="-10790" y="520.4" class="st3" width="628.1" height="595.4"></rect> </g> <g id="logo"> <g> <g> <path class="st4" d="M26.1,10c0,0.6,0.2,1.1,0.6,1.5c0.4,0.4,0.9,0.6,1.5,0.6h4.6v4.6c0,1.2,1,2.1,2.1,2.1c1.2,0,2.1-1,2.1-2.1 v-4.6h4.6c1.2,0,2.1-1,2.1-2.1c0-1.2-1-2.1-2.1-2.1h-4.6V3.2c0-1.2-1-2.1-2.1-2.1c-0.6,0-1.1,0.2-1.5,0.6 c-0.4,0.4-0.6,0.9-0.6,1.5v4.6h-4.6C27,7.8,26.1,8.8,26.1,10z"></path> </g> <path class="st5" d="M1,23c0,12.7,10.3,23,23,23c7.6,0,14.3-3.7,18.5-9.3C45.3,32.8,47,28.1,47,23c0-3.4-0.7-6.6-2.1-9.5 c-0.9,0.8-2,1.3-3.2,1.3h-2v2c0,2.6-2.2,4.8-4.8,4.8c-2.6,0-4.8-2.2-4.8-4.8v-2h-2c-1.3,0-2.5-0.5-3.4-1.4 c-0.9-0.9-1.4-2.1-1.4-3.4c0-2.6,2.2-4.8,4.8-4.8h2v-2c0-0.8,0.2-1.5,0.5-2.2c-2.1-0.6-4.4-1-6.7-1c-5.1,0-9.8,1.7-13.7,4.5 C4.7,8.7,1,15.4,1,23z"></path> <path class="st6" d="M12.6,34.4c8.2,8.2,20.9,8.9,29.9,2.2C45.3,32.8,47,28.1,47,23c0-3.4-0.7-6.6-2.1-9.5c-0.9,0.8-2,1.3-3.2,1.3 h-2v2c0,2.6-2.2,4.8-4.8,4.8c-2.6,0-4.8-2.2-4.8-4.8v-2h-2c-1.3,0-2.5-0.5-3.4-1.4c-0.9-0.9-1.4-2.1-1.4-3.4 c0-2.6,2.2-4.8,4.8-4.8h2v-2c0-0.8,0.2-1.5,0.5-2.2c-2.1-0.6-4.4-1-6.7-1c-5.1,0-9.8,1.7-13.7,4.5C3.7,13.5,4.4,26.3,12.6,34.4z"></path> </g> </g> </svg> 